<svg id="visual" viewBox="0 0 900 600" width="900" height="600" xmlns="http://www.w3.org/2000/svg" xmlns:xlink="http://www.w3.org/1999/xlink" version="1.1"><rect x="0" y="0" width="900" height="600" fill="#002233"></rect><path d="M0 417L21.5 427.5C43 438 86 459 128.8 454C171.7 449 214.3 418 257.2 403.8C300 389.7 343 392.3 385.8 404.7C428.7 417 471.3 439 514.2 457.3C557 475.7 600 490.3 642.8 497.5C685.7 504.7 728.3 504.3 771.2 502.5C814 500.7 857 497.3 878.5 495.7L900 494L900 601L878.5 601C857 601 814 601 771.2 601C728.3 601 685.7 601 642.8 601C600 601 557 601 514.2 601C471.3 601 428.7 601 385.8 601C343 601 300 601 257.2 601C214.3 601 171.7 601 128.8 601C86 601 43 601 21.5 601L0 601Z" fill="#0066FF" stroke-linecap="round" stroke-linejoin="miter"></path></svg>