<svg width="643" height="147" viewBox="0 0 643 147" fill="none" xmlns="http://www.w3.org/2000/svg">
<path d="M578.038 72.72C579.118 82.44 585.658 87.3 597.658 87.3C605.938 87.3 610.078 84.84 610.078 79.92C610.078 76.08 606.058 73.14 598.018 71.1C585.418 67.74 576.538 64.56 571.378 61.56C562.258 56.04 557.698 48.36 557.698 38.52C557.698 27.36 561.418 18.18 568.858 10.98C576.418 3.66 585.898 0 597.298 0C608.218 0 617.638 2.64 625.558 7.91999C634.198 13.44 639.898 21.24 642.658 31.32C632.938 33.12 624.658 34.74 617.818 36.18C615.538 27.78 609.778 23.58 600.538 23.58C594.538 23.58 591.538 25.86 591.538 30.42C591.538 33.54 595.138 36.24 602.338 38.52C615.898 42.6 625.138 46.44 630.058 50.04C638.458 56.04 642.658 64.68 642.658 75.96C642.658 89.16 636.898 99.18 625.378 106.02C615.898 111.54 604.018 114.3 589.738 114.3C576.778 114.3 566.278 111.66 558.238 106.38C548.998 100.14 544.198 90.9 543.838 78.66C551.398 77.22 562.798 75.24 578.038 72.72Z" fill="white"/>
<path d="M497.36 121.5L457.58 118.8C452.66 127.2 448.4 134.22 444.8 139.86C432.44 139.14 420.5 138.48 408.98 137.88C436.22 92.16 457.28 56.28 472.16 30.24C487.16 31.32 502.94 32.64 519.5 34.2L549.74 146.88L502.22 143.46C501.14 138.66 499.52 131.34 497.36 121.5ZM493.4 97.02C491.96 89.7 489.62 78.78 486.38 64.26C482.54 71.1 476.84 81.42 469.28 95.22L493.4 97.02Z" fill="white"/>
<path d="M405.016 125.28C391.936 124.56 379.095 124.08 366.495 123.84C375.015 76.8 382.816 37.86 389.896 7.01999C401.536 6.53999 413.355 6.23999 425.355 6.12C419.835 33.96 413.056 73.68 405.016 125.28Z" fill="white"/>
<path d="M353.035 116.64C344.275 115.32 335.395 114.18 326.395 113.22C328.195 86.94 329.095 60.9 329.095 35.1V34.02C322.975 32.82 316.915 31.68 310.915 30.6C311.035 23.52 311.035 15.48 310.915 6.47998C328.435 10.2 347.395 14.88 367.795 20.52L369.055 43.38C363.655 41.94 358.375 40.56 353.215 39.24C353.695 53.76 353.935 66.36 353.935 77.04C353.935 88.8 353.635 102 353.035 116.64Z" fill="white"/>
<path d="M286.238 116.64C277.478 115.32 268.598 114.18 259.598 113.22C261.398 86.94 262.298 60.9 262.298 35.1V34.02C256.178 32.82 250.118 31.68 244.118 30.6C244.238 23.52 244.238 15.48 244.118 6.47998C261.638 10.2 280.598 14.88 300.998 20.52L302.258 43.38C296.858 41.94 291.578 40.56 286.418 39.24C286.898 53.76 287.138 66.36 287.138 77.04C287.138 88.8 286.838 102 286.238 116.64Z" fill="white"/>
<path d="M203.805 121.5L164.025 118.8C159.105 127.2 154.845 134.22 151.245 139.86C138.885 139.14 126.945 138.48 115.425 137.88C142.665 92.16 163.725 56.28 178.605 30.24C193.605 31.32 209.385 32.64 225.945 34.2L256.185 146.88L208.665 143.46C207.585 138.66 205.965 131.34 203.805 121.5ZM199.845 97.02C198.405 89.7 196.065 78.78 192.825 64.26C188.985 71.1 183.285 81.42 175.725 95.22L199.845 97.02Z" fill="white"/>
<path d="M120.96 109.08C109.68 110.16 98.46 111.42 87.3 112.86C90.18 106.5 98.58 89.34 112.5 61.38H112.14C93.42 82.86 78.12 100.98 66.24 115.74C59.04 116.82 51.78 118.02 44.46 119.34C46.38 108.3 49.02 91.68 52.38 69.48L52.2 69.66C45.84 81.54 36.42 99.42 23.94 123.3C16.14 124.86 8.16 126.54 0 128.34C3.12 120.3 8.64 110.04 16.56 97.56C22.56 87.96 26.76 78.6 29.16 69.48C31.32 61.44 32.64 51.12 33.12 38.52C50.04 40.92 65.22 42.9 78.66 44.46C78.66 46.74 78.66 48.9 78.66 50.94C78.66 55.02 78.36 60.12 77.76 66.24C76.56 76.44 75.96 81.54 75.96 81.54H76.32C84 72.66 94.86 60.24 108.9 44.28C123.42 42.84 137.76 41.64 151.92 40.68C144.96 55.92 134.64 78.72 120.96 109.08Z" fill="white"/>
</svg>
